# xmcd CD database file
#
# Track frame offsets:
#	150
#	19815
#	39248
#	58940
#	82379
#	109959
#
# Disc length: 1727 seconds
#
# Revision: 0
# Processed by: cddbd v1.5.1PL2 Copyright (c) Steve Scherf et al.
# Submitted via: CDex 1.51
#
DISCID=4f06bd06
DTITLE=パク　ヨンハ - sometime
DYEAR=2005
DGENRE=Pop
TTITLE0=ワインレッドの心
TTITLE1=LA・LA・LA LOVE SONG
TTITLE2=Fction
TTITLE3=RUN
TTITLE4=瞳をとじて
TTITLE5=初めて出逢った日のように
EXTD=YEAR: 2005
EXTT0=
EXTT1=
EXTT2=
EXTT3=
EXTT4=
EXTT5=
PLAYORDER=
